#!OML:ASF F:\VICON\USERDATA\INSTALL\rory3\rory3.ASF
:FULLY-SPECIFIED
:DEGREES
4018
root -2.24513 17.4798 -0.0329609 6.90745 -26.2113 6.42851
lowerback 7.06615 -8.9686 -6.68151
upperback 1.50237 -12.397 6.7877
thorax 0.638114 -6.42091 11.4386
lowerneck -24.7571 7.20087 -5.27316
upperneck 20.9851 11.4972 1.64954
head 10.3693 5.02372 3.21181
rclavicle 4.45278e-014 2.70347e-014
rhumerus -11.2778 -21.9373 -25.3967
rradius 42.0068
rwrist 27.4428
rhand -35.7926 -1.18793
rfingers 7.12502
rthumb -8.90964 -30.9798
lclavicle 4.45278e-014 2.70347e-014
lhumerus 21.5702 4.37255 42.3824
lradius 23.8184
lwrist -17.75
lhand -26.6006 31.6943
lfingers 7.12502
lthumb -0.0343793 61.674
rfemur -32.7448 13.1314 6.25167
rtibia 43.7104
rfoot -15.8834 2.75464
rtoes 3.25949
lfemur -14.5262 11.9946 -21.2641
ltibia 28.2928
lfoot -16.4391 15.0389
ltoes -18.7175
4019
root -2.25208 17.4836 -0.0228737 7.1308 -27.2204 6.3368
lowerback 6.85743 -9.11257 -6.57125
upperback 1.58529 -12.5807 6.88548
thorax 0.885591 -6.53358 11.4277
lowerneck -24.7251 7.49036 -5.04883
upperneck 20.8814 11.8313 1.55857
head 10.3314 5.18829 3.18798
rclavicle 1.23246e-013 -3.81667e-014
rhumerus -12.0018 -22.2422 -25.1613
rradius 42.1218
rwrist 27.8522
rhand -35.7777 -0.200883
rfingers 7.12502
rthumb -8.89526 -29.9934
lclavicle 1.23246e-013 -3.81667e-014
lhumerus 22.7316 3.47864 42.3527
lradius 23.9842
lwrist -16.3151
lhand -27.2223 31.8552
lfingers 7.12502
lthumb -0.634807 61.834
rfemur -33.2484 13.8079 6.19121
rtibia 43.7027
rfoot -15.7133 3.01057
rtoes 3.31722
lfemur -14.5598 12.1115 -21.2762
ltibia 28.286
lfoot -16.7112 15.8193
ltoes -18.3108
4020
root -2.25797 17.48 -0.0130454 7.32277 -28.3606 6.23458
lowerback 6.8047 -9.20976 -6.39893
upperback 1.59908 -12.7006 6.98078
thorax 0.943751 -6.59962 11.4211
lowerneck -24.605 7.7655 -5.08217
upperneck 20.7806 12.1869 1.64812
head 10.2484 5.36843 3.26241
rclavicle -6.04305e-014 -1.59028e-015
rhumerus -12.695 -22.3261 -24.9422
rradius 42.1829
rwrist 28.0644
rhand -35.7621 0.100982
rfingers 7.12502
rthumb -8.88019 -29.6922
lclavicle -6.04305e-014 -1.59028e-015
lhumerus 23.8202 3.03643 42.5598
lradius 24.0106
lwrist -15.8101
lhand -27.4713 31.5333
lfingers 7.12502
lthumb -0.875243 61.5112
rfemur -33.7752 14.5893 6.11267
rtibia 43.7171
rfoot -15.5184 3.24887
rtoes 3.28671
lfemur -14.53 12.4252 -21.2888
ltibia 28.2703
lfoot -17.0318 16.5194
ltoes -17.9002
4021
root -2.26405 17.4725 -0.00361642 7.44134 -29.4953 6.33476
lowerback 6.72068 -9.26689 -6.40234
upperback 1.65931 -12.7793 7.01914
thorax 1.08355 -6.65169 11.4376
lowerneck -24.6941 7.97076 -5.2255
upperneck 20.7203 12.4721 1.8477
head 10.2038 5.5181 3.39257
rclavicle 5.36719e-014 -2.38542e-014
rhumerus -13.4539 -22.3963 -24.7137
rradius 42.3864
rwrist 27.8623
rhand -35.7184 0.0729731
rfingers 7.12502
rthumb -8.83808 -29.722
lclavicle 5.36719e-014 -2.38542e-014
lhumerus 25.1611 3.02474 43.0565
lradius 23.9573
lwrist -15.9473
lhand -27.3991 31.0258
lfingers 7.12502
lthumb -0.805531 61.004
rfemur -34.3444 15.3092 5.82573
rtibia 43.7727
rfoot -15.2981 3.49623
rtoes 3.87905
lfemur -14.5265 12.8369 -21.5213
ltibia 28.2385
lfoot -17.133 17.2715
ltoes -18.1104
4022
root -2.26842 17.4694 0.00664307 7.51489 -30.6284 6.59871
lowerback 6.58005 -9.29216 -6.57656
upperback 1.74794 -12.826 7.01953
thorax 1.30611 -6.69461 11.4918
lowerneck -24.8273 8.15743 -5.13321
upperneck 20.5468 12.711 1.78749
head 10.1643 5.63435 3.39002
rclavicle -4.33351e-014 -6.36111e-015
rhumerus -14.3216 -22.522 -24.4848
rradius 42.6771
rwrist 27.4814
rhand -35.7578 -0.0360826
rfingers 7.12502
rthumb -8.87606 -29.8294
lclavicle -4.33351e-014 -6.36111e-015
lhumerus 26.5601 3.12912 43.7123
lradius 23.9749
lwrist -16.3025
lhand -27.1821 30.9261
lfingers 7.12502
lthumb -0.595999 60.905
rfemur -34.9882 15.9418 5.36296
rtibia 43.8712
rfoot -15.1199 3.81543
rtoes 4.52371
lfemur -14.5412 13.2289 -21.9248
ltibia 28.1424
lfoot -17.2892 17.9473
ltoes -17.8082
4023
root -2.274 17.4621 0.017457 7.31329 -31.8179 6.91545
lowerback 6.71335 -9.29066 -6.92824
upperback 1.88197 -12.8612 7.04888
thorax 1.47234 -6.73747 11.7241
lowerneck -24.9499 8.39149 -4.905
upperneck 20.4189 13.0434 1.43271
head 10.1704 5.76119 3.28287
rclavicle -3.65764e-014 -1.11319e-014
rhumerus -14.9498 -22.854 -24.371
rradius 42.676
rwrist 27.6513
rhand -35.6776 -0.653955
rfingers 7.12502
rthumb -8.79871 -30.4505
lclavicle -3.65764e-014 -1.11319e-014
lhumerus 27.7643 3.0733 44.2424
lradius 24.0972
lwrist -16.3947
lhand -27.1778 30.8594
lfingers 7.12502
lthumb -0.591808 60.8383
rfemur -35.3901 16.689 4.91239
rtibia 43.9845
rfoot -14.9778 4.13577
rtoes 4.96976
lfemur -14.2436 13.6606 -22.3027
ltibia 27.9929
lfoot -17.5616 18.5313
ltoes -17.2609
4024
root -2.27846 17.457 0.0286573 7.21122 -33.0127 7.1585
lowerback 6.83158 -9.3025 -7.142
upperback 1.90541 -12.902 7.12032
thorax 1.51023 -6.77044 11.9373
lowerneck -24.8282 8.59156 -5.07716
upperneck 20.2849 13.365 1.43873
head 10.0746 5.90637 3.34047
rclavicle 9.22361e-014 -1.43125e-014
rhumerus -15.4991 -23.2018 -24.3159
rradius 42.5265
rwrist 28.1011
rhand -35.4229 -0.925711
rfingers 7.12502
rthumb -8.55293 -30.7325
lclavicle 9.22361e-014 -1.43125e-014
lhumerus 28.7317 2.516 44.4339
lradius 24.4178
lwrist -16.095
lhand -26.8612 30.5601
lfingers 7.12502
lthumb -0.286045 60.5396
rfemur -35.8654 17.3727 4.52392
rtibia 44.0735
rfoot -14.7458 4.52133
rtoes 5.05561
lfemur -14.0306 14.1084 -22.636
ltibia 27.8334
lfoot -17.7829 19.2091
ltoes -16.947
4025
root -2.28043 17.4537 0.0381514 7.22042 -34.1606 7.42641
lowerback 6.97241 -9.40124 -7.36369
upperback 1.79531 -13.0589 7.23916
thorax 1.43845 -6.85209 12.2207
lowerneck -24.5256 8.90369 -5.22949
upperneck 20.1116 13.8382 1.36886
head 9.93436 6.11844 3.37678
rclavicle 1.23246e-014 -6.36111e-015
rhumerus -15.9514 -23.2815 -24.2875
rradius 42.4732
rwrist 28.2911
rhand -35.3466 -0.595084
rfingers 7.12502
rthumb -8.47925 -30.4049
lclavicle 1.23246e-014 -6.36111e-015
lhumerus 29.5115 2.31207 44.7711
lradius 24.5897
lwrist -16.4238
lhand -26.5245 29.8868
lfingers 7.12502
lthumb 0.0392099 59.8665
rfemur -36.4777 17.931 4.08887
rtibia 44.1285
rfoot -14.4782 4.84796
rtoes 4.75191
lfemur -14.0177 14.4416 -23.0391
ltibia 27.6988
lfoot -18.0351 20.0651
ltoes -17.5271
4026
root -2.27943 17.4511 0.0569604 7.33345 -35.1795 7.49708
lowerback 7.05715 -9.486 -7.24157
upperback 1.73167 -13.1694 7.36142
thorax 1.35675 -6.90439 12.3074
lowerneck -24.4158 9.13279 -5.39142
upperneck 20.0014 14.2079 1.32588
head 9.85196 6.27986 3.42232
rclavicle 2.90226e-014 -4.77083e-015
rhumerus -16.7051 -23.2675 -24.0556
rradius 42.5288
rwrist 28.1815
rhand -35.2493 -0.202842
rfingers 7.12502
rthumb -8.38535 -30.0164
lclavicle 2.90226e-014 -4.77083e-015
lhumerus 30.4548 1.81388 44.8139
lradius 24.7957
lwrist -16.1584
lhand -26.4943 29.9267
lfingers 7.12502
lthumb 0.0683149 59.9064
rfemur -36.9761 18.4149 3.83315
rtibia 44.1575
rfoot -14.2522 5.2622
rtoes 5.13636
lfemur -13.9872 14.675 -23.2627
ltibia 27.5705
lfoot -18.292 20.777
ltoes -17.693
4027
root -2.27582 17.4526 0.0766882 7.34767 -35.9705 7.5774
lowerback 7.24854 -9.56642 -6.99685
upperback 1.77058 -13.2661 7.36127
thorax 1.26196 -6.94593 12.2049
lowerneck -24.4215 9.32029 -5.19967
upperneck 19.8146 14.4241 1.17899
head 9.80426 6.38481 3.36586
rclavicle 7.4743e-014 -6.83819e-014
rhumerus -17.7643 -23.1985 -23.8636
rradius 42.6423
rwrist 27.8743
rhand -35.3082 -0.0440918
rfingers 7.12502
rthumb -8.44224 -29.8554
lclavicle 7.4743e-014 -6.83819e-014
lhumerus 31.6285 1.0795 44.5909
lradius 25.1946
lwrist -15.625
lhand -26.7979 30.7051
lfingers 7.12502
lthumb -0.224869 60.6848
rfemur -37.2632 18.722 3.65599
rtibia 44.1602
rfoot -14.0874 5.57329
rtoes 4.92544
lfemur -13.8792 14.9433 -23.4583
ltibia 27.4517
lfoot -18.3534 21.2583
ltoes -17.7759
4028
root -2.27347 17.4527 0.0913093 7.29732 -36.8441 7.73682
lowerback 7.39838 -9.63993 -6.93465
upperback 1.84131 -13.3687 7.38507
thorax 1.27443 -7.00317 12.2154
lowerneck -24.4199 9.55087 -5.06154
upperneck 19.6576 14.7306 0.987044
head 9.76352 6.52008 3.31541
rclavicle 1.23246e-014 1.59028e-015
rhumerus -18.6721 -22.6114 -23.665
rradius 42.8551
rwrist 27.0715
rhand -35.2629 -0.102222
rfingers 7.12502
rthumb -8.39845 -29.9152
lclavicle 1.23246e-014 1.59028e-015
lhumerus 32.9107 1.21613 45.0861
lradius 25.1956
lwrist -16.1758
lhand -26.9613 30.7122
lfingers 7.12502
lthumb -0.382722 60.6916
rfemur -37.5968 18.9968 3.43276
rtibia 44.143
rfoot -13.8009 5.99703
rtoes 5.13239
lfemur -13.7808 15.2274 -23.7034
ltibia 27.3833
lfoot -18.5241 21.6532
ltoes -17.3844
4029
root -2.27408 17.4558 0.110914 7.4828 -37.8722 7.81033
lowerback 7.19847 -9.73423 -6.71956
upperback 1.93287 -13.478 7.44283
thorax 1.47456 -7.07242 12.1039
lowerneck -24.446 9.83569 -5.08875
upperneck 19.4879 15.1706 0.792229
head 9.70677 6.70544 3.30575
rclavicle -7.95139e-015 -4.29375e-014
rhumerus -19.3651 -22.2634 -23.601
rradius 42.8885
rwrist 26.8008
rhand -35.6294 0.0965307
rfingers 7.12502
rthumb -8.75215 -29.702
lclavicle -7.95139e-015 -4.29375e-014
lhumerus 34.2149 1.48136 45.4938
lradius 24.9145
lwrist -16.7866
lhand -27.3727 30.3605
lfingers 7.12502
lthumb -0.78004 60.3388
rfemur -38.1797 19.4706 3.13906
rtibia 44.1138
rfoot -13.5088 6.3909
rtoes 5.92473
lfemur -13.8902 15.5558 -23.9504
ltibia 27.3477
lfoot -18.7028 22.1148
ltoes -16.5621
4030
root -2.27392 17.461 0.12852 7.81673 -38.7516 7.7781
lowerback 7.06841 -9.86995 -6.42358
upperback 1.96123 -13.6389 7.54991
thorax 1.57542 -7.15958 12.0222
lowerneck -24.5377 10.1003 -5.12773
upperneck 19.3203 15.5617 0.712259
head 9.65232 6.88202 3.33284
rclavicle 8.50798e-014 -3.49861e-014
rhumerus -19.995 -22.7998 -23.6031
rradius 42.6272
rwrist 27.2152
rhand -35.8906 0.495333
rfingers 7.12502
rthumb -9.00425 -29.2925
lclavicle 8.50798e-014 -3.49861e-014
lhumerus 35.4154 1.62178 45.7951
lradius 24.7164
lwrist -17.2105
lhand -27.4707 30.5167
lfingers 7.12502
lthumb -0.874738 60.4947
rfemur -38.7688 19.7671 2.99144
rtibia 44.0844
rfoot -13.3144 6.50007
rtoes 4.9721
lfemur -14.1724 15.9373 -24.1392
ltibia 27.3891
lfoot -18.7355 22.579
ltoes -16.4112
4031
root -2.27098 17.4588 0.142924 8.01214 -39.6559 7.87164
lowerback 7.18104 -9.96165 -6.33517
upperback 1.90368 -13.7607 7.67455
thorax 1.49627 -7.21961 12.1355
lowerneck -24.5569 10.368 -5.06214
upperneck 19.3152 15.9478 0.545108
head 9.66119 7.04365 3.32112
rclavicle 5.56597e-014 -7.15625e-014
rhumerus -20.6196 -22.868 -23.4788
rradius 42.4556
rwrist 27.047
rhand -35.6787 0.588501
rfingers 7.12502
rthumb -8.79972 -29.208
lclavicle 5.56597e-014 -7.15625e-014
lhumerus 36.5943 2.15207 46.6513
lradius 24.4039
lwrist -18.2536
lhand -27.0536 30.1918
lfingers 7.12502
lthumb -0.471888 60.171
rfemur -39.319 19.9407 2.80609
rtibia 44.057
rfoot -13.0502 6.73301
rtoes 4.05688
lfemur -14.47 16.4259 -24.4263
ltibia 27.5465
lfoot -18.9172 22.9938
ltoes -16.875
